# xmcd
#
# Track frame offsets: 
#        150
#        21038
#        42690
#        60970
#        74592
#        90857
#        109227
#        122072
#        150594
#        174552
#        200784
#        212254
#        235541
#        259148
#        280511
#        306856
#        325128
#
# Disc length: 4770 seconds
#
# Revision: 2
# Processed by: cddbd v1.5.2PL0 Copyright (c) Steve Scherf et al.
# Submitted via: ExactAudioCopy v1.3
#
DISCID=e412a011
DTITLE=Various Artist - Akella Presents - vol.86 - Blues from 90th  C
DTITLE=D2
DYEAR=2016
DGENRE=Blues
TTITLE0=Pat Mason - Queen Of The Boucherie
TTITLE1=George Whitsell - Warm Heart
TTITLE2=Chris Hammer Smith - Born In Chicago
TTITLE3=Jimmy Spacek and Heavy Traffic - Good Lookin Lady
TTITLE4=Bleu Jackson - You Left Your Mark On Me
TTITLE5=Tim Wagoner and Wild Blue Yonder - My Old Friens the Blues
TTITLE6=Jimmy Markham - You're So Fine
TTITLE7=John 'Bradway' Tucker - Good Woman
TTITLE8=Metro Blues All Stars - Bad Situation
TTITLE9=Chuck Vincent and Shuffle - Boogie 'Til We All Fall Down
TTITLE10=Dr. Hector and The Groove Injectors - Risky Buisiness
TTITLE11=Vickie Carrico - Let Love Make It Right
TTITLE12=Red Hot Blues - Haunted By My Past
TTITLE13=Terry Haggerty - Red House
TTITLE14=Barry Levenson - Steel Life
TTITLE15=Robert Ealy - Dog Don't Bite
TTITLE16=Lost In Detroit - I Want To Make Love To You
EXTD=
EXTT0=
EXTT1=
EXTT2=
EXTT3=
EXTT4=
EXTT5=
EXTT6=
EXTT7=
EXTT8=
EXTT9=
EXTT10=
EXTT11=
EXTT12=
EXTT13=
EXTT14=
EXTT15=
EXTT16=
PLAYORDER=
